<?xml version="1.0" standalone="no"?>
<!DOCTYPE svg PUBLIC "-//W3C//DTD SVG 20010904//EN"
 "http://www.w3.org/TR/2001/REC-SVG-20010904/DTD/svg10.dtd">
<svg version="1.0" xmlns="http://www.w3.org/2000/svg"
 width="284.000000pt" height="284.000000pt" viewBox="0 0 284.000000 284.000000"
 preserveAspectRatio="xMidYMid meet">
<metadata>
Created by potrace 1.11, written by Peter Selinger 2001-2013
</metadata>
<g transform="translate(0.000000,284.000000) scale(0.100000,-0.100000)"
fill="#000000" stroke="none">
<path d="M830 2656 c-209 -61 -331 -245 -332 -499 -1 -166 28 -288 109 -467
136 -302 425 -566 693 -635 80 -21 206 -32 197 -18 -4 6 3 8 17 6 34 -7 138
25 130 39 -4 7 -3 8 4 4 26 -16 171 111 156 136 -4 7 -3 8 4 4 14 -8 56 80 46
96 -4 7 -3 8 4 4 7 -4 13 -2 13 3 1 6 2 14 3 19 39 153 37 279 -5 446 -95 377
-403 733 -729 845 -81 28 -243 37 -310 17z"/>
<path d="M109 933 c-3 -19 4 -49 13 -54 5 -4 3 -13 -6 -22 -19 -19 -29 -184
-12 -190 12 -4 15 -249 4 -322 -5 -27 -11 -84 -14 -125 l-5 -75 50 -1 c30 0
51 4 52 10 0 6 2 20 5 31 9 46 11 146 2 151 -5 3 -4 12 3 20 6 7 9 21 5 29 -3
8 -6 19 -6 23 0 4 43 8 96 9 l97 2 -8 -72 c-4 -40 -7 -93 -8 -119 0 -27 -4
-48 -8 -48 -4 0 -5 -8 -2 -18 3 -14 15 -18 53 -18 46 0 49 1 55 30 4 17 6 36
5 41 -2 6 -2 21 -1 35 0 14 1 45 2 70 l1 45 22 -65 c28 -80 47 -120 57 -120 4
0 15 -8 25 -17 24 -24 101 -26 139 -2 37 22 75 90 82 144 2 21 6 42 8 46 3 3
7 46 11 95 6 78 18 114 33 98 3 -3 6 -90 6 -194 0 -104 4 -192 8 -196 4 -4 22
-8 41 -10 38 -2 44 7 42 64 -1 17 1 32 4 32 3 0 6 25 8 55 2 38 -1 55 -10 55
-9 0 -9 3 0 12 7 7 12 20 12 31 0 17 -1 17 -16 3 -19 -20 -21 -20 -21 -1 0 8
4 15 8 15 3 0 9 13 11 29 3 20 0 27 -8 24 -7 -2 -14 9 -17 29 -5 37 1 53 22
53 10 0 15 13 16 45 0 25 4 50 8 57 4 6 3 14 -3 18 -7 4 -7 12 0 25 6 10 6 21
2 24 -5 3 -7 26 -5 51 4 40 2 46 -20 56 -17 8 -23 17 -20 30 3 10 0 19 -6 19
-6 0 -11 -6 -11 -12 0 -9 -4 -8 -11 2 -8 12 -9 10 -4 -7 4 -15 2 -23 -5 -23
-7 0 -10 -6 -7 -14 3 -8 -2 -20 -11 -28 -11 -9 -14 -9 -8 -1 4 8 2 11 -7 7 -7
-2 -14 -18 -14 -34 0 -16 4 -27 9 -24 4 3 4 -6 -1 -19 -6 -14 -7 -28 -3 -32 3
-3 -2 -3 -12 1 -11 4 -16 14 -13 25 3 10 -1 20 -9 23 -8 3 -14 12 -14 20 0 15
-45 30 -60 21 -6 -4 -10 1 -10 11 0 9 -8 23 -17 31 -17 14 -17 14 0 9 19 -6
24 18 5 30 -7 4 -8 3 -4 -4 6 -11 -5 -16 -26 -13 -4 0 -5 -9 -3 -21 3 -12 -2
-29 -10 -38 -8 -8 -19 -27 -24 -40 l-11 -25 3 25 c1 14 5 27 8 30 4 3 9 21 13
40 l7 35 -18 -32 c-17 -31 -19 -32 -30 -14 -14 23 -58 17 -49 -6 3 -7 -1 -16
-9 -19 -8 -4 -15 -14 -15 -23 0 -9 -5 -22 -10 -27 -10 -10 -27 -82 -34 -141
-1 -13 -5 -26 -9 -29 -3 -3 -2 -16 3 -29 5 -13 6 -25 3 -28 -3 -4 -5 -33 -5
-67 0 -33 -4 -60 -9 -60 -11 0 -11 -3 -16 105 -6 126 -4 235 4 248 9 14 10 67
1 67 -3 0 -5 17 -4 38 2 22 -3 44 -12 55 -10 11 -11 17 -4 17 7 0 12 9 12 20
0 25 -20 27 -21 3 0 -15 -2 -15 -7 -3 -4 8 -13 16 -20 18 -8 1 -11 -2 -7 -8 4
-7 -2 -14 -14 -17 -24 -6 -26 -16 -9 -35 16 -16 21 -38 10 -38 -5 0 -9 -6 -10
-12 -1 -7 -4 -29 -7 -48 -3 -19 -8 -52 -11 -73 -6 -33 -8 -36 -22 -25 -13 11
-14 11 -7 -2 4 -8 5 -12 0 -8 -14 13 -35 -13 -36 -46 -1 -30 -1 -30 -9 -6 -11
34 -12 52 -2 46 4 -2 13 4 20 14 7 12 8 21 2 25 -6 3 -10 0 -10 -8 0 -8 -6
-15 -12 -14 -36 1 -48 -5 -48 -22 0 -28 -15 -34 -17 -8 -1 12 -8 26 -16 32 -8
5 -14 17 -15 25 0 8 -3 29 -5 45 -3 17 -2 34 1 39 2 5 6 24 7 43 1 26 -1 33
-12 29 -9 -4 -11 -2 -6 6 15 26 10 50 -14 59 -29 11 -63 12 -64 2z m110 -320
c9 -18 9 -23 -1 -23 -8 0 -15 12 -16 27 -2 29 0 29 17 -4z m488 -55 c13 -12
23 -27 23 -35 0 -7 5 -13 10 -13 6 0 10 -19 10 -41 0 -34 -2 -39 -14 -30 -11
9 -15 5 -21 -21 -5 -18 -9 -37 -9 -43 -1 -5 -5 -16 -9 -22 -6 -9 -3 -11 10 -7
16 5 16 4 -1 -10 -25 -21 -33 -20 -45 2 -7 13 -6 23 2 32 9 10 9 11 0 6 -7 -4
-13 -2 -13 3 0 6 -4 11 -10 11 -5 0 -10 -14 -10 -31 0 -18 -4 -28 -10 -24 -6
4 -8 15 -5 26 9 28 -5 86 -16 68 -5 -8 -9 -9 -9 -3 0 5 5 15 12 22 9 9 7 13
-8 19 -22 9 -27 50 -9 70 5 7 16 19 23 28 19 22 72 19 99 -7z"/>
<path d="M1219 918 c-1 -7 -1 -19 0 -27 2 -8 -2 -10 -9 -6 -7 4 -16 1 -21 -6
-12 -19 -11 -32 1 -24 6 3 10 -1 10 -9 0 -9 -7 -16 -15 -16 -8 0 -15 -5 -15
-11 0 -5 4 -8 10 -4 5 3 5 -6 -1 -24 -7 -19 -7 -41 -1 -64 7 -25 6 -39 -1 -46
-9 -9 -9 -14 -1 -19 16 -10 35 -158 24 -192 0 -3 -3 -34 -5 -70 -4 -76 -7 -93
-19 -101 -10 -7 -11 -84 -1 -99 3 -5 1 -10 -5 -10 -6 0 -10 -12 -8 -27 l3 -28
135 1 c74 1 141 3 148 5 20 4 72 59 84 88 6 14 11 38 12 53 0 14 5 30 10 35 5
5 6 3 2 -4 -4 -7 -2 -13 3 -13 6 0 11 -11 11 -24 0 -14 5 -28 10 -31 6 -3 10
-13 10 -22 0 -9 14 -29 30 -45 17 -15 30 -25 30 -22 0 4 6 2 13 -3 20 -15 93
-10 89 6 -3 12 0 12 12 2 13 -11 20 -6 47 32 17 25 31 47 30 49 -2 1 4 16 13
32 8 16 12 35 9 42 -3 8 0 14 7 14 7 0 11 -15 9 -42 -5 -89 33 -137 111 -142
43 -3 53 0 79 27 29 28 34 26 30 -10 -1 -11 37 -22 58 -17 15 4 18 12 15 34
-2 15 1 31 8 35 8 5 11 0 10 -16 -5 -53 -2 -56 46 -55 39 0 45 2 41 18 -3 10
0 18 7 18 10 0 12 24 9 95 -3 73 -1 95 9 95 10 1 9 4 -2 13 -21 16 -20 131 1
153 28 27 67 27 91 -1 12 -14 24 -33 26 -43 7 -28 2 -236 -6 -242 -6 -4 -7
-51 -3 -95 1 -13 81 -15 81 -3 0 5 5 6 11 2 8 -4 9 3 4 25 -4 21 -3 31 5 31 7
0 10 -7 6 -15 -3 -10 1 -18 12 -22 9 -4 20 -11 24 -17 11 -16 139 -15 170 2
45 26 68 88 74 204 11 203 11 217 2 212 -4 -3 -9 9 -9 25 -4 97 -3 133 4 138
4 2 2 13 -3 24 -6 10 -8 19 -5 19 3 0 -1 13 -10 30 -14 27 -17 29 -41 18 -22
-10 -28 -9 -38 4 -11 15 -13 15 -24 -3 -7 -10 -19 -19 -26 -19 -25 0 -29 -20
-10 -43 10 -12 12 -16 4 -9 -24 21 -43 15 -38 -12 3 -16 0 -27 -10 -31 -11 -4
-13 0 -9 15 3 11 0 23 -5 27 -6 3 -8 1 -4 -5 3 -6 2 -13 -2 -16 -5 -3 -7 -18
-5 -33 4 -22 2 -25 -6 -13 -9 12 -11 9 -12 -15 0 -16 -3 -52 -5 -80 -3 -27 -5
-61 -5 -75 1 -14 1 -44 2 -68 0 -24 -5 -49 -11 -57 -7 -9 -8 -15 0 -20 5 -3
10 -11 10 -16 0 -6 -4 -7 -10 -4 -6 3 -10 -4 -11 -17 0 -13 -5 -32 -10 -43 -8
-17 -8 -15 -4 8 3 16 1 27 -6 27 -6 0 -3 7 6 16 14 14 14 19 2 38 -8 12 -11
29 -7 41 4 11 6 23 4 27 -9 15 -11 69 -3 74 5 3 6 10 2 17 -4 6 -8 31 -9 57
-2 25 -3 47 -4 50 -1 3 -3 10 -4 15 -4 28 -19 55 -27 50 -5 -4 -9 1 -9 9 0 9
3 16 8 16 4 0 8 16 9 35 3 41 -2 43 -34 13 -20 -18 -23 -19 -23 -5 0 9 6 16
13 14 6 -1 11 4 10 11 -2 6 2 12 9 12 6 0 8 3 5 6 -4 4 -13 2 -20 -5 -11 -9
-17 -7 -28 6 -8 9 -9 14 -4 11 6 -4 17 -3 25 3 12 7 10 9 -7 9 -12 0 -27 -9
-33 -20 -10 -18 -13 -19 -26 -5 -21 21 -29 19 -48 -10 -20 -30 -20 -36 -1 -29
8 4 15 1 15 -5 0 -6 -7 -11 -15 -11 -7 0 -19 -8 -24 -17 -9 -16 -12 -16 -20
-3 -6 8 -6 17 -1 20 14 9 -1 60 -18 60 -12 0 -13 -3 -5 -11 15 -15 -6 -79 -26
-79 -14 0 -14 -2 -2 -9 12 -8 12 -12 2 -25 -14 -17 -25 -176 -12 -176 7 0 10
-23 12 -92 1 -15 -2 -44 -6 -65 -6 -35 -8 -37 -21 -18 -16 22 -19 39 -4 30 6
-3 10 0 10 9 0 8 -6 17 -12 19 -10 4 -10 6 0 6 10 1 10 6 1 22 -20 38 -26 73
-18 97 5 13 4 32 -3 47 -8 18 -8 28 0 38 7 8 8 17 4 21 -10 10 -10 56 0 50 13
-8 3 35 -12 49 -10 10 -11 9 -5 -3 5 -8 -3 -6 -16 6 -13 12 -31 24 -39 27 -10
4 -7 6 8 6 12 1 22 5 22 11 0 5 -7 7 -15 4 -20 -8 -41 6 -25 16 9 6 8 14 -5
36 -9 16 -14 21 -11 12 6 -20 -17 -31 -34 -15 -10 9 -11 9 -5 -3 6 -10 1 -8
-13 4 -19 17 -22 17 -22 3 0 -11 -8 -17 -25 -17 -14 0 -25 -4 -25 -10 0 -5 5
-10 10 -10 6 0 10 -5 10 -10 0 -6 -6 -10 -12 -9 -37 4 -45 -2 -46 -33 0 -18
-1 -36 -2 -40 -5 -16 -8 -28 -9 -40 -2 -21 -21 6 -27 38 -3 16 -12 33 -20 37
-8 5 -11 13 -8 19 4 7 2 8 -5 4 -6 -4 -18 0 -27 8 -14 15 -11 21 9 17 5 -1 7
4 4 11 -2 8 -18 12 -38 11 -71 -5 -74 -6 -71 -38 2 -16 9 -33 15 -37 7 -4 2
-6 -11 -5 -12 0 -22 5 -22 10 0 4 -4 6 -9 3 -23 -15 -15 23 10 49 22 21 26 31
17 36 -7 5 -14 4 -16 -1 -2 -5 -10 -6 -18 -3 -8 3 -14 -1 -14 -11 0 -9 -5 -16
-11 -16 -6 0 -9 -6 -6 -14 3 -8 -2 -16 -13 -19 -13 -3 -18 -12 -15 -25 2 -14
-3 -22 -17 -26 -18 -4 -19 -7 -8 -20 7 -9 8 -16 2 -16 -5 0 -8 -8 -5 -19 7
-26 -37 -109 -47 -90 -14 24 -21 89 -10 89 7 0 7 7 0 20 -6 11 -8 25 -5 30 3
6 2 10 -3 10 -5 0 -9 12 -9 28 0 49 -3 63 -13 57 -5 -3 -10 0 -10 8 0 7 -9 32
-20 55 -23 47 -45 47 -48 0 -4 -44 -12 -49 -12 -8 0 27 -3 31 -12 22 -10 -10
-16 -8 -28 7 -20 27 -69 36 -65 13 1 -10 -2 -23 -8 -29 -6 -9 -6 -13 2 -13 7
0 9 -4 6 -10 -3 -5 -13 -10 -21 -10 -11 0 -13 6 -9 20 3 11 2 20 -2 20 -5 0
-19 9 -31 20 -15 14 -22 16 -23 8z m146 -77 c3 -5 1 -12 -5 -16 -5 -3 -10 1
-10 9 0 18 6 21 15 7z m-65 -26 c0 -9 -6 -12 -16 -8 -13 5 -13 7 -2 14 17 11
18 11 18 -6z m678 -49 c1 -15 -1 -17 -7 -7 -5 7 -13 11 -19 7 -5 -3 -12 0 -15
7 -3 7 4 13 17 13 16 1 22 -5 24 -20z m62 3 c0 -4 -7 -9 -15 -13 -9 -3 -15 0
-15 8 0 7 7 13 15 13 8 0 15 -4 15 -8z m720 -29 c0 -5 -2 -10 -4 -10 -3 0 -8
5 -11 10 -3 6 -1 10 4 10 6 0 11 -4 11 -10z m-923 -36 c-2 -2 -13 -1 -25 3
-18 4 -20 8 -10 20 10 13 14 13 25 -3 7 -10 12 -19 10 -20z m-507 -54 c0 -5
-5 -10 -11 -10 -5 0 -7 5 -4 10 3 6 8 10 11 10 2 0 4 -4 4 -10z m558 -25 c-1
-23 -4 -31 -9 -23 -12 18 -11 58 1 58 5 0 9 -16 8 -35z m4 -73 c3 -10 0 -19
-6 -19 -7 0 -12 9 -12 19 0 10 3 18 7 18 4 0 9 -8 11 -18z m-87 -153 c-2 -10
-8 -27 -14 -36 -8 -15 -10 -15 -11 -2 0 8 4 19 9 25 6 5 1 10 -14 10 -14 1
-22 -2 -19 -7 3 -5 -2 -9 -10 -9 -8 0 -20 8 -25 18 -9 16 -4 18 39 18 42 1 48
-1 45 -17z m-468 -10 c-3 -11 2 -19 14 -22 11 -3 19 -14 19 -27 0 -11 -4 -18
-10 -15 -5 3 -10 0 -11 -7 0 -7 -6 0 -13 16 -9 20 -15 25 -19 15 -3 -8 -6 -5
-6 9 -1 12 -8 25 -16 28 -22 9 -8 24 21 22 18 -2 24 -7 21 -19z m73 4 c0 -7
-5 -13 -11 -13 -5 0 -8 -4 -4 -9 3 -5 1 -12 -5 -16 -9 -6 -14 7 -11 28 0 4 -4
7 -10 7 -5 0 -8 4 -4 9 8 14 45 9 45 -6z m353 -57 c3 -8 0 -17 -8 -20 -9 -3
-13 2 -12 15 2 22 13 25 20 5z m259 7 c-6 -2 -10 -8 -8 -12 3 -4 -1 -8 -9 -8
-11 0 -12 4 -4 14 6 7 17 13 23 12 7 0 6 -2 -2 -6z m668 -22 c0 -6 -4 -12 -8
-15 -5 -3 -9 1 -9 9 0 8 4 15 9 15 4 0 8 -4 8 -9z m-493 -17 c-3 -3 -12 -4
-19 -1 -8 3 -5 6 6 6 11 1 17 -2 13 -5z"/>
<path d="M1690 870 c0 -5 5 -10 11 -10 5 0 7 5 4 10 -3 6 -8 10 -11 10 -2 0
-4 -4 -4 -10z"/>
<path d="M2635 841 c-3 -5 -1 -12 5 -16 5 -3 10 1 10 9 0 18 -6 21 -15 7z"/>
<path d="M744 809 c0 -10 6 -19 13 -19 7 0 13 4 13 9 0 5 -6 13 -13 19 -10 8
-13 6 -13 -9z"/>
</g>
</svg>
